<?xml version="1.0" encoding="UTF-8"?>
<svg id="Layer_1" data-name="Layer 1" xmlns="http://www.w3.org/2000/svg" viewBox="0 0 3529.65 3855.43">
  <defs>
    <style>
      .cls-1 {
        letter-spacing: 0em;
      }

      .cls-2 {
        letter-spacing: -.01em;
      }

      .cls-3 {
        letter-spacing: -.03em;
      }

      .cls-4 {
        fill: #e1ae9b;
        stroke-width: 0px;
      }

      .cls-5 {
        letter-spacing: -.02em;
      }

      .cls-6 {
        letter-spacing: -.01em;
      }

      .cls-7 {
        letter-spacing: -.06em;
      }

      .cls-8 {
        letter-spacing: 0em;
      }

      .cls-9 {
        letter-spacing: -.02em;
      }

      .cls-10 {
        letter-spacing: 0em;
      }

      .cls-11 {
        letter-spacing: -.02em;
      }

      .cls-12 {
        letter-spacing: 0em;
      }

      .cls-13 {
        letter-spacing: -.03em;
      }

      .cls-14 {
        letter-spacing: .03em;
      }

      .cls-15 {
        letter-spacing: -.02em;
      }

      .cls-16 {
        letter-spacing: -.08em;
      }

      .cls-17 {
        letter-spacing: -.02em;
      }

      .cls-18 {
        letter-spacing: -.05em;
      }

      .cls-19 {
        letter-spacing: -.01em;
      }

      .cls-20 {
        fill: none;
        stroke-width: 30px;
      }

      .cls-20, .cls-21, .cls-22, .cls-23 {
        stroke-linejoin: round;
      }

      .cls-20, .cls-21, .cls-23 {
        stroke: #f39336;
      }

      .cls-24 {
        letter-spacing: 0em;
      }

      .cls-25 {
        letter-spacing: 0em;
      }

      .cls-26 {
        letter-spacing: -.02em;
      }

      .cls-27 {
        letter-spacing: -.01em;
      }

      .cls-28 {
        letter-spacing: 0em;
      }

      .cls-29 {
        letter-spacing: -.01em;
      }

      .cls-30 {
        letter-spacing: -.02em;
      }

      .cls-31 {
        letter-spacing: -.04em;
      }

      .cls-32 {
        letter-spacing: .01em;
      }

      .cls-33 {
        letter-spacing: -.04em;
      }

      .cls-34 {
        letter-spacing: -.02em;
      }

      .cls-35 {
        letter-spacing: 0em;
      }

      .cls-36 {
        letter-spacing: -.02em;
      }

      .cls-37 {
        letter-spacing: 0em;
      }

      .cls-38 {
        letter-spacing: -.02em;
      }

      .cls-39 {
        letter-spacing: 0em;
      }

      .cls-40 {
        letter-spacing: -.03em;
      }

      .cls-41 {
        font-family: Satoshi-Bold, Satoshi;
        font-size: 100px;
        font-weight: 700;
      }

      .cls-41, .cls-42 {
        fill: #fbe1da;
      }

      .cls-43 {
        letter-spacing: 0em;
      }

      .cls-44 {
        letter-spacing: 0em;
      }

      .cls-45 {
        letter-spacing: -.01em;
      }

      .cls-46 {
        letter-spacing: 0em;
      }

      .cls-47 {
        letter-spacing: -.01em;
      }

      .cls-48 {
        letter-spacing: 0em;
      }

      .cls-49 {
        letter-spacing: 0em;
      }

      .cls-50 {
        letter-spacing: -.01em;
      }

      .cls-51 {
        letter-spacing: -.01em;
      }

      .cls-52 {
        letter-spacing: 0em;
      }

      .cls-42 {
        font-family: Satoshi-Regular, Satoshi;
        font-size: 50px;
      }

      .cls-53 {
        letter-spacing: 0em;
      }

      .cls-54 {
        letter-spacing: -.03em;
      }

      .cls-21 {
        stroke-width: 15px;
      }

      .cls-21, .cls-23 {
        fill: #160802;
      }

      .cls-55 {
        letter-spacing: -.02em;
      }

      .cls-56 {
        letter-spacing: -.02em;
      }

      .cls-22 {
        fill: #f39336;
        stroke: #160802;
      }

      .cls-22, .cls-23 {
        stroke-width: 20px;
      }

      .cls-57 {
        letter-spacing: 0em;
      }

      .cls-58 {
        letter-spacing: 0em;
      }

      .cls-59 {
        letter-spacing: -.02em;
      }

      .cls-60 {
        letter-spacing: -.01em;
      }

      .cls-61 {
        letter-spacing: .02em;
      }

      .cls-62 {
        letter-spacing: -.07em;
      }

      .cls-63 {
        letter-spacing: -.09em;
      }

      .cls-64 {
        letter-spacing: -.02em;
      }

      .cls-65 {
        letter-spacing: -.02em;
      }

      .cls-66 {
        letter-spacing: 0em;
      }

      .cls-67 {
        letter-spacing: -.02em;
      }

      .cls-68 {
        letter-spacing: 0em;
      }

      .cls-69 {
        letter-spacing: -.02em;
      }

      .cls-70 {
        letter-spacing: -.02em;
      }

      .cls-71 {
        letter-spacing: -.09em;
      }

      .cls-72 {
        letter-spacing: -.01em;
      }

      .cls-73 {
        letter-spacing: 0em;
      }

      .cls-74 {
        letter-spacing: -.04em;
      }

      .cls-75 {
        letter-spacing: 0em;
      }
    </style>
  </defs>
  <circle class="cls-22" cx="437.22" cy="2260.77" r="69.59"/>
  <circle class="cls-22" cx="3092.43" cy="2259.21" r="69.59"/>
  <path class="cls-20" d="M1759.45,1092.3l.04-.02,2.96-1.78c2.48-1.49,4.96-2.98,7.45-4.47l11.66-6.99c5.19-3.12,10.39-6.23,15.58-9.35,6.41-3.85,12.82-7.69,19.23-11.54,7.54-4.52,15.07-9.04,22.61-13.56,8.57-5.14,17.13-10.28,25.7-15.41l28.51-17.1c10.35-6.21,20.69-12.41,31.04-18.62,11.1-6.66,22.2-13.31,33.29-19.97,11.76-7.05,23.51-14.1,35.27-21.16,12.32-7.39,24.64-14.78,36.96-22.17l38.38-23.02c13.17-7.9,26.34-15.8,39.51-23.7,13.46-8.07,26.91-16.14,40.37-24.22l40.95-24.56c13.75-8.25,27.5-16.49,41.25-24.74,13.76-8.25,27.51-16.5,41.27-24.75,13.67-8.2,27.34-16.4,41.01-24.6,13.49-8.09,26.98-16.18,40.47-24.27,13.22-7.93,26.43-15.85,39.65-23.78,12.85-7.71,25.7-15.42,38.55-23.12,12.39-7.43,24.78-14.86,37.17-22.3,11.84-7.1,23.68-14.2,35.51-21.3,11.19-6.71,22.38-13.43,33.58-20.14,10.45-6.27,20.91-12.54,31.36-18.81,9.62-5.77,19.24-11.54,28.87-17.32,8.7-5.22,17.39-10.43,26.09-15.65,23.33-13.99,46.64-28.01,69.93-42.09,5.37-3.25,10.84-6.53,16.9-8.16,9.47-2.54,19.75-.75,28.56,3.55,5.93,2.9,11.32,6.93,15.6,11.94,1.81,2.11,3.45,4.47,4.1,7.18.41,1.69.41,3.45.41,5.19,0,6.54-.02,13.08-.02,19.62,0,4.82,0,9.64,0,14.47v17.46c0,6.76,0,13.53,0,20.29,0,7.66,0,15.31,0,22.97,0,8.5,0,16.99,0,25.49v27.85c0,10.02,0,20.04,0,30.06v32.11c0,11.34,0,22.67,0,34.01,0,11.92,0,23.83,0,35.75,0,12.44,0,24.89,0,37.33,0,12.92,0,25.84,0,38.76v40.03c0,13.71,0,27.43,0,41.14,0,14.03,0,28.06,0,42.1s0,28.6,0,42.9c0,14.51,0,29.03,0,43.54,0,14.68,0,29.35,0,44.03,0,14.79,0,29.57,0,44.36,0,14.85,0,29.69,0,44.54,0,14.85,0,29.7,0,44.56v44.42c0,14.71,0,29.42,0,44.13,0,14.56,0,29.12,0,43.68v43.07c0,14.1,0,28.2,0,42.31,0,13.8,0,27.59,0,41.39s0,26.88,0,40.31c0,13.03,0,26.05,0,39.08,0,12.56,0,25.13,0,37.69v36.15c0,11.48,0,22.97,0,34.45,0,10.86,0,21.73,0,32.59,0,10.19,0,20.38,0,30.58,0,9.47,0,18.94,0,28.41,0,8.69,0,17.39,0,26.08v23.6c0,6.99,0,13.97,0,20.96,0,6.05,0,12.11,0,18.16,0,5.07,0,10.14,0,15.21,0,4.03,0,8.07,0,12.1v8.84c0,1.81,0,3.61,0,5.42v1.84s333.25,289.37,333.25,289.37c0,0-1332.99,1166.36-1332.99,1166.36L426.46,2254.66s333.25-289.37,333.25-289.37v-1.84c0-1.81,0-3.61,0-5.42,0-2.95,0-5.89,0-8.84,0-4.03,0-8.07,0-12.1,0-5.07,0-10.14,0-15.21,0-6.05,0-12.11,0-18.16,0-6.99,0-13.97,0-20.96v-23.6c0-8.69,0-17.39,0-26.08,0-9.47,0-18.94,0-28.41,0-10.19,0-20.38,0-30.58,0-10.86,0-21.73,0-32.59,0-11.48,0-22.97,0-34.45,0-12.05,0-24.1,0-36.15,0-12.56,0-25.13,0-37.69,0-13.03,0-26.05,0-39.08,0-13.44,0-26.88,0-40.31v-41.39c0-14.1,0-28.2,0-42.31,0-14.36,0-28.71,0-43.07v-43.68c0-14.71,0-29.42,0-44.13,0-14.81,0-29.61,0-44.42v-44.56c0-14.85,0-29.69,0-44.54,0-14.79,0-29.57,0-44.36,0-14.68,0-29.35,0-44.03,0-14.51,0-29.03,0-43.54,0-14.3,0-28.6,0-42.9,0-14.03,0-28.06,0-42.1,0-13.71,0-27.43,0-41.14,0-13.34,0-26.68,0-40.03,0-12.92,0-25.84,0-38.76v-37.33c0-11.92,0-23.83,0-35.75,0-11.34,0-22.67,0-34.01v-32.11c0-10.02,0-20.04,0-30.06,0-9.28,0-18.57,0-27.85v-25.49c0-7.66,0-15.31,0-22.97,0-6.76,0-13.53,0-20.29,0-5.82,0-11.64,0-17.46v-14.47c0-6.54-.01-13.08-.02-19.62,0-1.74,0-3.5.41-5.19.65-2.7,2.29-5.06,4.1-7.18,4.28-5.02,9.68-9.05,15.6-11.94,8.81-4.31,19.09-6.09,28.56-3.55,6.06,1.63,11.53,4.91,16.9,8.16,23.29,14.07,46.6,28.09,69.93,42.09,8.7,5.22,17.39,10.43,26.09,15.65l28.87,17.32c10.45,6.27,20.91,12.54,31.36,18.81,11.19,6.71,22.38,13.43,33.58,20.14,11.84,7.1,23.68,14.2,35.51,21.3,12.39,7.43,24.78,14.86,37.17,22.3l38.55,23.12c13.22,7.93,26.43,15.85,39.65,23.78s26.98,16.18,40.47,24.27c13.67,8.2,27.34,16.4,41.01,24.6,13.76,8.25,27.51,16.5,41.27,24.75,13.75,8.25,27.5,16.49,41.25,24.74,13.65,8.19,27.3,16.38,40.95,24.56,13.46,8.07,26.91,16.14,40.37,24.22,13.17,7.9,26.34,15.8,39.51,23.7s25.59,15.35,38.38,23.02c12.32,7.39,24.64,14.78,36.96,22.17,11.76,7.05,23.51,14.1,35.27,21.16,11.1,6.66,22.2,13.31,33.29,19.97,10.35,6.21,20.69,12.41,31.04,18.62,9.5,5.7,19.01,11.4,28.51,17.1,8.57,5.14,17.13,10.28,25.7,15.41,7.54,4.52,15.07,9.04,22.61,13.56,6.41,3.85,12.82,7.69,19.23,11.54,5.19,3.12,10.39,6.23,15.58,9.35l11.66,6.99c2.48,1.49,4.96,2.98,7.45,4.47l2.96,1.78s.03.02.04.02Z"/>
  <circle class="cls-23" cx="759.7" cy="1962.87" r="69.59"/>
  <circle class="cls-23" cx="1759.44" cy="3407.03" r="69.59"/>
  <circle class="cls-22" cx="779.52" cy="538.34" r="69.59"/>
  <circle class="cls-22" cx="2741.82" cy="538.34" r="69.59"/>
  <g>
    <text class="cls-41" transform="translate(850.43 1933.24) rotate(-20.29)"><tspan x="0" y="0">P</tspan><tspan class="cls-26" x="63.9" y="0">r</tspan><tspan x="101.5" y="0">oject </tspan><tspan class="cls-74" x="357.59" y="0">F</tspan><tspan class="cls-30" x="410.49" y="0">o</tspan><tspan x="467.89" y="0">x</tspan></text>
    <text class="cls-42" transform="translate(881.94 1995.12) rotate(-20.29)"><tspan x="0" y="0">Whe</tspan><tspan class="cls-17" x="103.45" y="0">r</tspan><tspan class="cls-8" x="119.75" y="0">e </tspan><tspan class="cls-38" x="160" y="0">y</tspan><tspan class="cls-45" x="182.7" y="0">o</tspan><tspan x="210.5" y="0">u s</tspan><tspan class="cls-25" x="273.7" y="0">t</tspan><tspan x="288.2" y="0">a</tspan><tspan class="cls-61" x="314.3" y="0">r</tspan><tspan class="cls-57" x="332.54" y="0">t</tspan><tspan x="347.19" y="0">ed</tspan><tspan class="cls-38" x="0" y="60">y</tspan><tspan class="cls-45" x="22.7" y="60">o</tspan><tspan x="50.5" y="60">ur j</tspan><tspan class="cls-45" x="119.9" y="60">o</tspan><tspan x="147.7" y="60">urn</tspan><tspan class="cls-60" x="220.7" y="60">e</tspan><tspan class="cls-16" x="246.5" y="60">y</tspan><tspan x="266.25" y="60">... Hunt on!</tspan></text>
  </g>
  <text class="cls-41" transform="translate(1887.28 3445.53) rotate(-20.29)"><tspan x="0" y="0">4XX H</tspan><tspan class="cls-14" x="302" y="0">T</tspan><tspan class="cls-46" x="364" y="0">TP Codes</tspan></text>
  <text class="cls-42" transform="translate(1917.96 3505.05) rotate(-19.98)"><tspan class="cls-35" x="0" y="0">L</tspan><tspan class="cls-53" x="24.95" y="0">e</tspan><tspan class="cls-8" x="51.1" y="0">arn mo</tspan><tspan class="cls-17" x="206.9" y="0">r</tspan><tspan x="223.2" y="0">e ab</tspan><tspan class="cls-45" x="318.75" y="0">o</tspan><tspan class="cls-43" x="346.55" y="0">ut the 4XX H</tspan><tspan class="cls-14" x="627.84" y="0">T</tspan><tspan class="cls-8" x="656.19" y="0">TP </tspan><tspan class="cls-17" x="727.59" y="0">r</tspan><tspan class="cls-8" x="743.89" y="0">espo</tspan><tspan class="cls-48" x="849.59" y="0">n</tspan><tspan x="877.39" y="0">se</tspan><tspan x="0" y="60">codes I’</tspan><tspan class="cls-56" x="170.1" y="60">v</tspan><tspan class="cls-8" x="193.35" y="60">e been </tspan><tspan class="cls-69" x="357.55" y="60">r</tspan><tspan x="373.8" y="60">ambling on ab</tspan><tspan class="cls-45" x="689.59" y="60">o</tspan><tspan x="717.39" y="60">u</tspan><tspan class="cls-13" x="745.04" y="60">t</tspan><tspan x="758.44" y="60">...</tspan></text>
  <text class="cls-41" transform="translate(567.15 2243.45)"><tspan x="0" y="0">Ab</tspan><tspan class="cls-51" x="130" y="0">o</tspan><tspan class="cls-58" x="188.4" y="0">ut</tspan></text>
  <text class="cls-42" transform="translate(568.24 2297.22)"><tspan class="cls-35" x="0" y="0">L</tspan><tspan class="cls-53" x="24.95" y="0">e</tspan><tspan class="cls-8" x="51.1" y="0">arn mo</tspan><tspan class="cls-17" x="206.9" y="0">r</tspan><tspan x="223.2" y="0">e ab</tspan><tspan class="cls-45" x="318.75" y="0">o</tspan><tspan class="cls-43" x="346.55" y="0">ut P</tspan><tspan class="cls-17" x="433.64" y="0">r</tspan><tspan x="449.94" y="0">oject </tspan><tspan class="cls-33" x="570.14" y="0">F</tspan><tspan class="cls-38" x="595.39" y="0">o</tspan><tspan class="cls-73" x="622.94" y="0">x</tspan><tspan x="645.59" y="0">, and m</tspan><tspan class="cls-27" x="811.89" y="0">a</tspan><tspan x="837.44" y="0">ybe </tspan><tspan class="cls-6" x="930.44" y="0">e</tspan><tspan class="cls-56" x="956.19" y="0">v</tspan><tspan x="979.44" y="0">en</tspan><tspan x="0" y="60" xml:space="preserve">    som</tspan><tspan class="cls-57" x="147.6" y="60">e</tspan><tspan x="173.75" y="60">thing ab</tspan><tspan class="cls-45" x="353.85" y="60">o</tspan><tspan class="cls-43" x="381.65" y="60">ut its pa</tspan><tspan class="cls-17" x="554.44" y="60">r</tspan><tspan class="cls-8" x="570.74" y="60">ent – Ope</tspan><tspan class="cls-69" x="808.24" y="60">r</tspan><tspan class="cls-68" x="824.49" y="60">a</tspan><tspan x="850.14" y="60">tion B</tspan><tspan class="cls-36" x="977.49" y="60">ox</tspan><tspan class="cls-8" x="1026.94" y="60">ed.</tspan></text>
  <text class="cls-41" transform="translate(2397.54 2249.56)"><tspan x="0" y="0">H</tspan><tspan class="cls-5" x="74.2" y="0">o</tspan><tspan x="131.4" y="0">w </tspan><tspan class="cls-44" x="238.1" y="0">t</tspan><tspan class="cls-49" x="271.6" y="0">o pl</tspan><tspan class="cls-29" x="445.19" y="0">a</tspan><tspan x="498.59" y="0">y</tspan></text>
  <text class="cls-42" transform="translate(1927.6 2321.83)"><tspan class="cls-10" x="0" y="0">L</tspan><tspan class="cls-44" x="24.95" y="0">e</tspan><tspan x="51.1" y="0">arn h</tspan><tspan class="cls-56" x="164.5" y="0">o</tspan><tspan class="cls-46" x="191.85" y="0">w the game </tspan><tspan class="cls-56" x="463.69" y="0">w</tspan><tspan x="499.74" y="0">or</tspan><tspan class="cls-24" x="545.39" y="0">k</tspan><tspan class="cls-28" x="569.84" y="0">s</tspan><tspan x="591.14" y="0">, and h</tspan><tspan class="cls-67" x="743.44" y="0">o</tspan><tspan x="770.79" y="0">w </tspan><tspan class="cls-44" x="821.74" y="0">t</tspan><tspan x="836.39" y="0">o pl</tspan><tspan class="cls-50" x="918.79" y="0">a</tspan><tspan class="cls-8" x="944.34" y="0">y it!</tspan></text>
  <path class="cls-4" d="M1305.68,867.45l-37.15-66.58c-1.17-2.09.37-4.66,2.76-4.62l76.24,1.12-41.85,70.08-37.23-66.73c-1.13-2.03.36-4.52,2.68-4.48,0,0,76.4,1.12,76.4,1.12l176.51,105.4-41.85,70.08s-176.51-105.4-176.51-105.4Z"/>
  <rect class="cls-4" x="1505.03" y="959.52" width="205.58" height="81.63" transform="translate(2475.38 2683.51) rotate(-149.16)"/>
  <rect class="cls-4" x="1951.8" y="875.76" width="205.58" height="81.63" transform="translate(-182.18 1158.01) rotate(-30.2)"/>
  <rect class="cls-4" x="1758.43" y="988.32" width="205.58" height="81.63" transform="translate(-265.06 1076.02) rotate(-30.2)"/>
  <circle class="cls-21" cx="2763.99" cy="1962.87" r="69.59"/>
  <g>
    <text class="cls-41" transform="translate(2181.67 1753.71) rotate(20.29)"><tspan x="0" y="0">Dashboa</tspan><tspan class="cls-38" x="410.29" y="0">r</tspan><tspan x="447.89" y="0">d</tspan></text>
    <text class="cls-42" transform="translate(2008.53 1763.22) rotate(20.29)"><tspan x="0" y="0">A hu</tspan><tspan class="cls-13" x="101.85" y="0">b</tspan><tspan x="129.55" y="0">, full </tspan><tspan class="cls-66" x="234.75" y="0">o</tspan><tspan class="cls-58" x="262.95" y="0">f </tspan><tspan class="cls-35" x="291.65" y="0">u</tspan><tspan class="cls-46" x="318.8" y="0">seful </tspan><tspan class="cls-44" x="434.19" y="0">t</tspan><tspan x="448.84" y="0">ool</tspan><tspan class="cls-37" x="516.59" y="0">s</tspan><tspan x="537.89" y="0">. </tspan><tspan class="cls-71" x="564.84" y="0">Y</tspan><tspan class="cls-45" x="588.89" y="0">o</tspan><tspan class="cls-13" x="616.69" y="0">u</tspan><tspan x="642.84" y="0">’ll</tspan><tspan x="-170.9" y="60">need this </tspan><tspan class="cls-44" x="42.25" y="60">t</tspan><tspan x="56.9" y="60">o find a l</tspan><tspan class="cls-44" x="247.65" y="60">o</tspan><tspan x="275.8" y="60">t </tspan><tspan class="cls-12" x="304.55" y="60">o</tspan><tspan class="cls-58" x="332.75" y="60">f the </tspan><tspan class="cls-70" x="444.69" y="60">r</tspan><tspan x="460.99" y="60">espo</tspan><tspan class="cls-48" x="566.69" y="60">n</tspan><tspan class="cls-43" x="594.49" y="60">se</tspan><tspan class="cls-37" x="642.59" y="60">s</tspan><tspan x="663.89" y="60">.</tspan></text>
  </g>
  <text class="cls-41" transform="translate(1576.83 1228.5)"><tspan x="0" y="0">The End</tspan></text>
  <text class="cls-42" transform="translate(1340.33 1300.76)"><tspan class="cls-7" x="0" y="0">W</tspan><tspan class="cls-67" x="46.15" y="0">o</tspan><tspan class="cls-62" x="73.5" y="0">w</tspan><tspan x="106.9" y="0">... </tspan><tspan class="cls-10" x="160.05" y="0">L</tspan><tspan class="cls-58" x="185" y="0">ook </tspan><tspan class="cls-68" x="279.75" y="0">a</tspan><tspan x="305.4" y="0">t </tspan><tspan class="cls-36" x="334.15" y="0">y</tspan><tspan class="cls-72" x="356.84" y="0">o</tspan><tspan x="384.65" y="0">u! </tspan><tspan class="cls-63" x="439.69" y="0">Y</tspan><tspan class="cls-45" x="463.74" y="0">o</tspan><tspan class="cls-3" x="491.54" y="0">u</tspan><tspan x="517.69" y="0">’</tspan><tspan class="cls-15" x="529.94" y="0">v</tspan><tspan x="553.19" y="0">e </tspan><tspan class="cls-47" x="593.44" y="0">f</tspan><tspan class="cls-45" x="607.54" y="0">o</tspan><tspan class="cls-43" x="635.34" y="0">und </tspan><tspan class="cls-6" x="734.14" y="0">e</tspan><tspan class="cls-56" x="759.89" y="0">v</tspan><tspan x="783.14" y="0">e</tspan><tspan class="cls-32" x="809.54" y="0">r</tspan><tspan x="827.54" y="0">y</tspan><tspan x="-88.3" y="60">single er</tspan><tspan class="cls-70" x="96.2" y="60">r</tspan><tspan class="cls-46" x="112.5" y="60">or </tspan><tspan class="cls-56" x="172" y="60">w</tspan><tspan class="cls-18" x="208.05" y="60">e</tspan><tspan x="232.15" y="60">’</tspan><tspan class="cls-9" x="244.4" y="60">v</tspan><tspan x="267.65" y="60">e g</tspan><tspan class="cls-57" x="337.1" y="60">o</tspan><tspan class="cls-43" x="365.25" y="60">t </tspan><tspan class="cls-57" x="394" y="60">t</tspan><tspan x="408.65" y="60">o </tspan><tspan class="cls-1" x="450.9" y="60">o</tspan><tspan class="cls-47" x="479.1" y="60">ff</tspan><tspan class="cls-8" x="508.15" y="60">er! Cong</tspan><tspan class="cls-69" x="701.34" y="60">r</tspan><tspan class="cls-68" x="717.59" y="60">a</tspan><tspan x="743.24" y="60">tul</tspan><tspan class="cls-68" x="796.74" y="60">a</tspan><tspan x="822.39" y="60">tio</tspan><tspan class="cls-48" x="876.34" y="60">n</tspan><tspan x="904.14" y="60">s!</tspan></text>
  <text class="cls-41" transform="translate(757.37 315.81)"><tspan class="cls-65" x="0" y="0">A</tspan><tspan x="65.9" y="0">ckn</tspan><tspan class="cls-55" x="233.6" y="0">o</tspan><tspan class="cls-58" x="290.8" y="0">wledgements</tspan></text>
  <text class="cls-42" transform="translate(765.47 384.77)"><tspan x="0" y="0">N</tspan><tspan class="cls-34" x="35.65" y="0">o</tspan><tspan x="63" y="0">w th</tspan><tspan class="cls-75" x="156.95" y="0">a</tspan><tspan class="cls-43" x="182.6" y="0">t </tspan><tspan class="cls-36" x="211.35" y="0">y</tspan><tspan class="cls-45" x="234.05" y="0">o</tspan><tspan class="cls-3" x="261.85" y="0">u</tspan><tspan class="cls-8" x="288" y="0">’</tspan><tspan class="cls-56" x="300.25" y="0">v</tspan><tspan x="323.5" y="0">e compl</tspan><tspan class="cls-57" x="500.39" y="0">et</tspan><tspan class="cls-8" x="541.2" y="0">ed the gam</tspan><tspan class="cls-40" x="791.29" y="0">e</tspan><tspan x="816.19" y="0">, it</tspan><tspan class="cls-31" x="868.69" y="0">’</tspan><tspan class="cls-43" x="878.74" y="0">s </tspan><tspan x="0" y="60">time </tspan><tspan class="cls-53" x="107.9" y="60">t</tspan><tspan x="122.55" y="60">o </tspan><tspan class="cls-37" x="164.8" y="60">t</tspan><tspan x="179.3" y="60">a</tspan><tspan class="cls-36" x="205.4" y="60">k</tspan><tspan x="228.65" y="60">e a look </tspan><tspan class="cls-68" x="414.54" y="60">a</tspan><tspan x="440.19" y="60">t wh</tspan><tspan class="cls-75" x="534.14" y="60">a</tspan><tspan x="559.79" y="60">t made this all possibl</tspan><tspan class="cls-13" x="1029.04" y="60">e</tspan><tspan x="1053.94" y="60">.</tspan><tspan x="0" y="120" xml:space="preserve">       Who kn</tspan><tspan class="cls-34" x="268.45" y="120">o</tspan><tspan class="cls-52" x="295.8" y="120">w</tspan><tspan class="cls-37" x="332.75" y="120">s</tspan><tspan x="354.04" y="120">, m</tspan><tspan class="cls-50" x="423.09" y="120">a</tspan><tspan x="448.64" y="120">ybe </tspan><tspan class="cls-56" x="541.64" y="120">w</tspan><tspan class="cls-18" x="577.69" y="120">e</tspan><tspan x="601.79" y="120">’ll h</tspan><tspan class="cls-64" x="677.89" y="120">a</tspan><tspan class="cls-56" x="702.99" y="120">v</tspan><tspan x="726.24" y="120">e an</tspan><tspan class="cls-57" x="820.69" y="120">o</tspan><tspan x="848.84" y="120">ther challenge</tspan><tspan x="0" y="180" xml:space="preserve">               </tspan><tspan class="cls-2" x="207.74" y="180">f</tspan><tspan x="221.84" y="180">or </tspan><tspan class="cls-38" x="281.34" y="180">y</tspan><tspan class="cls-45" x="304.04" y="180">o</tspan><tspan x="331.84" y="180">u...</tspan></text>
  <text class="cls-41" transform="translate(2111.45 326.09)"><tspan class="cls-59" x="0" y="0">A</tspan><tspan x="65.9" y="0">chi</tspan><tspan class="cls-56" x="204.6" y="0">e</tspan><tspan class="cls-11" x="258.2" y="0">v</tspan><tspan x="309.4" y="0">ements</tspan></text>
  <text class="cls-42" transform="translate(2157.25 395.06)"><tspan x="0" y="0">A displ</tspan><tspan class="cls-27" x="147.8" y="0">a</tspan><tspan x="173.35" y="0">y sh</tspan><tspan class="cls-9" x="260.55" y="0">ow</tspan><tspan x="323.95" y="0">casing all the</tspan><tspan class="cls-70" x="-38.85" y="60">r</tspan><tspan x="-22.55" y="60">espo</tspan><tspan class="cls-39" x="83.15" y="60">n</tspan><tspan class="cls-46" x="110.95" y="60">se codes </tspan><tspan class="cls-26" x="318.44" y="60">y</tspan><tspan class="cls-19" x="341.14" y="60">o</tspan><tspan class="cls-54" x="368.94" y="60">u</tspan><tspan class="cls-58" x="395.09" y="60">’</tspan><tspan class="cls-56" x="407.34" y="60">v</tspan><tspan class="cls-8" x="430.59" y="60">e </tspan><tspan class="cls-2" x="470.84" y="60">f</tspan><tspan class="cls-45" x="484.94" y="60">o</tspan><tspan x="512.74" y="60">und.</tspan></text>
  <circle class="cls-21" cx="1751.85" cy="1057.6" r="69.59"/>
</svg>