<?xml version="1.0" standalone="no"?>
<!DOCTYPE svg PUBLIC "-//W3C//DTD SVG 20010904//EN"
 "http://www.w3.org/TR/2001/REC-SVG-20010904/DTD/svg10.dtd">
<svg version="1.0" xmlns="http://www.w3.org/2000/svg"
 width="700.000000pt" height="700.000000pt" viewBox="0 0 700.000000 700.000000"
 preserveAspectRatio="xMidYMid meet">
<metadata>
Created by potrace 1.14, written by Peter Selinger 2001-2017
</metadata>
<g transform="translate(0.000000,700.000000) scale(0.100000,-0.100000)"
fill="#000000" stroke="none">
<path d="M5660 6880 c-91 -55 -176 -106 -190 -113 -14 -7 -43 -24 -65 -38 -22
-14 -59 -37 -82 -50 -116 -67 -210 -124 -223 -134 -8 -7 -35 -23 -60 -37 -25
-13 -63 -35 -85 -49 -22 -14 -56 -34 -75 -45 -19 -10 -37 -21 -40 -24 -3 -3
-14 -10 -25 -16 -48 -26 -70 -39 -75 -44 -3 -3 -95 -59 -205 -124 -110 -65
-216 -129 -235 -141 -31 -20 -449 -270 -525 -315 -16 -9 -82 -49 -145 -87 -64
-39 -122 -72 -130 -75 -8 -3 -31 7 -50 22 -27 22 -368 229 -522 319 -15 9
-409 245 -874 524 -465 280 -859 510 -874 512 -19 2 -34 -3 -47 -17 -17 -19
-18 -89 -21 -1733 l-2 -1713 -62 -53 c-34 -30 -66 -59 -72 -64 -6 -6 -99 -87
-206 -180 -107 -94 -208 -182 -225 -197 -37 -33 -64 -56 -134 -116 -30 -26
-63 -56 -73 -67 -21 -22 -30 -12 112 -135 41 -36 77 -67 80 -70 3 -3 75 -66
160 -140 148 -129 209 -183 234 -205 6 -6 99 -87 206 -180 107 -93 200 -174
206 -180 22 -20 83 -74 314 -275 129 -113 251 -219 270 -236 19 -17 145 -127
280 -245 236 -206 300 -262 324 -284 6 -6 63 -55 126 -110 63 -55 117 -102
120 -105 3 -3 39 -34 80 -70 41 -36 91 -79 110 -96 19 -17 149 -131 288 -253
l252 -221 98 87 c53 48 99 90 102 93 3 3 50 46 105 95 220 196 299 268 305
274 3 3 46 42 95 86 50 44 92 82 95 85 3 3 52 48 110 100 58 52 107 97 110
100 7 7 208 190 249 225 18 17 43 39 55 50 57 51 212 192 235 214 29 26 154
138 182 161 9 9 53 48 96 87 43 38 170 153 283 253 113 101 244 219 292 262
47 43 106 95 129 116 24 20 50 44 59 52 9 8 56 51 106 95 49 43 96 86 105 95
21 20 69 63 226 203 73 64 134 121 137 126 5 7 -125 123 -380 338 -27 23 -60
51 -74 63 -14 12 -45 38 -69 58 -24 21 -58 49 -75 64 -17 15 -66 56 -108 90
l-77 63 0 1697 c-1 1528 -3 1698 -17 1712 -8 9 -23 16 -32 16 -9 0 -91 -45
-182 -100z"/>
</g>
</svg>
